<svg id="Layer_1" data-name="Layer 1" xmlns="http://www.w3.org/2000/svg" width="235.2" height="237.4" viewBox="0 0 235.2 237.4"><title>cookie-icon</title><path d="M233.8,146.1c-23.7,8-37.1-11.1-41.5-29.4-16.1-4.2-26.8-5.9-25.5-31.1-22-6.4-25-25.4-5.9-39.5-5.7-17,2.3-25,11-28.8A122.3,122.3,0,0,0,157,12.8a118.7,118.7,0,1,0,88,142.9c.4-1.5.7-3,1-4.5C241.9,149.8,237.8,147.9,233.8,146.1ZM126.4,76.4a3.6,3.6,0,0,1,3.7,3.7,3.7,3.7,0,0,1-3.7,3.7,3.8,3.8,0,0,1-3.7-3.7A3.7,3.7,0,0,1,126.4,76.4ZM90,54.1A13.9,13.9,0,1,1,76.2,68,13.9,13.9,0,0,1,90,54.1ZM54.7,123.7a8.6,8.6,0,1,1,8.6-8.6A8.6,8.6,0,0,1,54.7,123.7Zm27.3,34a10.2,10.2,0,1,1,10.2-10.2A10.1,10.1,0,0,1,82,157.7Zm29.7,55.9a14.9,14.9,0,0,1,0-29.7,14.9,14.9,0,1,1,0,29.7Zm24.1-61.4a18.6,18.6,0,1,1,18.6-18.5A18.5,18.5,0,0,1,135.8,152.2Zm31.5,33.7a7.1,7.1,0,0,1-7.1-7.1,7,7,0,0,1,7.1-7,7,7,0,0,1,7,7A7,7,0,0,1,167.3,185.9Z" transform="translate(-10.8 -9.5)"/></svg>